<svg xmlns="http://www.w3.org/2000/svg" viewBox="0 0 512 512" role="img" aria-labelledby="title desc">
  <title id="title">Plan 57 calendar red logo</title>
  <desc id="desc">Plan 57 schedule planner mark with calendar, weights, and red accent.</desc>
  <defs>
    <linearGradient id="ink" x1="138" y1="115" x2="378" y2="382" gradientUnits="userSpaceOnUse">
      <stop stop-color="#0E2234"/>
      <stop offset="1" stop-color="#172C40"/>
    </linearGradient>
    <linearGradient id="red" x1="290" y1="190" x2="390" y2="404" gradientUnits="userSpaceOnUse">
      <stop stop-color="#E96D5A"/>
      <stop offset="1" stop-color="#D34A3E"/>
    </linearGradient>
  </defs>
  <rect x="16" y="14" width="480" height="484" rx="64" fill="#FBF8F1" stroke="#D5CEC2" stroke-width="2"/>
  <path d="M80 252c4-87 69-162 160-180 32-6 68-4 101 7-86-5-160 36-195 102-26 49-25 104 0 150" fill="none" stroke="#E7E0D4" stroke-width="34" stroke-linecap="round" opacity=".9"/>
  <g transform="translate(143 96)">
    <rect x="16" y="44" width="226" height="218" rx="26" fill="#FDFBF7" stroke="url(#ink)" stroke-width="14"/>
    <path d="M16 104h226V70c0-14-12-26-26-26H42c-14 0-26 12-26 26v34Z" fill="url(#ink)"/>
    <rect x="64" y="8" width="16" height="58" rx="8" fill="#FDFBF7" stroke="url(#ink)" stroke-width="8"/>
    <rect x="178" y="8" width="16" height="58" rx="8" fill="#FDFBF7" stroke="url(#ink)" stroke-width="8"/>
    <g fill="#DFDAD1">
      <rect x="48" y="123" width="18" height="18"/><rect x="82" y="123" width="18" height="18"/><rect x="116" y="123" width="18" height="18"/><rect x="150" y="123" width="18" height="18"/><rect x="184" y="123" width="18" height="18"/>
      <rect x="48" y="158" width="18" height="18"/><rect x="82" y="158" width="18" height="18"/><rect x="116" y="158" width="18" height="18"/><rect x="150" y="158" width="18" height="18" fill="#D95548"/><rect x="184" y="158" width="18" height="18"/>
    </g>
    <path d="M106 222l38 38 86-93" fill="none" stroke="url(#red)" stroke-width="16"/>
    <path d="M-6 198h46M218 198h46M9 178v40M249 178v40" stroke="url(#ink)" stroke-width="14" stroke-linecap="round"/>
  </g>
  <text x="256" y="424" text-anchor="middle" font-family="Avenir Next, Montserrat, Arial, sans-serif" font-size="58" font-weight="800" letter-spacing="2" fill="#13273A">Plan <tspan fill="#DA5748">57</tspan></text>
  <path d="M98 449h29M384 449h30" stroke="#DA5748" stroke-width="2"/>
  <text x="256" y="454" text-anchor="middle" font-family="Avenir Next, Montserrat, Arial, sans-serif" font-size="13" letter-spacing="7" fill="#13273A">CLASS SCHEDULE PLANNER</text>
</svg>
