<svg xmlns="http://www.w3.org/2000/svg" viewBox="0 0 512 512" role="img" aria-labelledby="title desc">
  <title id="title">Plan 57 calendar gold logo</title>
  <desc id="desc">Calendar inspired Plan 57 class schedule planner mark for Physique 57.</desc>
  <defs>
    <linearGradient id="navy" x1="120" y1="80" x2="392" y2="432" gradientUnits="userSpaceOnUse">
      <stop stop-color="#0F2530"/>
      <stop offset="1" stop-color="#193746"/>
    </linearGradient>
    <linearGradient id="gold" x1="150" y1="80" x2="380" y2="430" gradientUnits="userSpaceOnUse">
      <stop stop-color="#C9A46A"/>
      <stop offset="1" stop-color="#9E7B47"/>
    </linearGradient>
    <linearGradient id="sage" x1="240" y1="180" x2="395" y2="358" gradientUnits="userSpaceOnUse">
      <stop stop-color="#78988A"/>
      <stop offset="1" stop-color="#527868"/>
    </linearGradient>
    <filter id="soft" x="-20%" y="-20%" width="140%" height="140%">
      <feDropShadow dx="0" dy="18" stdDeviation="22" flood-color="#0F2530" flood-opacity=".12"/>
    </filter>
  </defs>
  <rect width="512" height="512" rx="84" fill="#FBF7EF"/>
  <g filter="url(#soft)">
    <rect x="102" y="78" width="308" height="302" rx="58" fill="#FFFDF8" stroke="url(#navy)" stroke-width="12"/>
    <path d="M102 141h308v-5c0-32-26-58-58-58H160c-32 0-58 26-58 58v5Z" fill="url(#navy)"/>
    <rect x="166" y="64" width="17" height="46" rx="9" fill="url(#gold)"/>
    <rect x="329" y="64" width="17" height="46" rx="9" fill="url(#gold)"/>
    <path d="M122 181h116M122 243h106M122 306h106M174 181v157" stroke="#D8D0C4" stroke-width="2.5"/>
    <circle cx="200" cy="213" r="8" fill="#D9A99B"/>
    <circle cx="200" cy="273" r="8" fill="#78988A"/>
    <circle cx="200" cy="334" r="8" fill="#AAB5B8"/>
    <path d="M251 184h68l-73 152c47-21 78-55 76-92-1-24-17-39-39-38-16 0-29 7-42 17l30-80Z" fill="url(#navy)"/>
    <path d="M329 184h68L313 336l68-118h-57l5-34Z" fill="url(#navy)"/>
    <path d="M296 354c55-9 98-40 121-93-12 69-67 115-156 118H123c58-2 122-8 173-25Z" fill="url(#sage)" opacity=".85"/>
    <circle cx="359" cy="284" r="11" fill="#78988A"/>
  </g>
  <text x="256" y="438" text-anchor="middle" font-family="Avenir Next, Montserrat, Arial, sans-serif" font-size="49" letter-spacing="18" fill="#173240">PLAN<tspan fill="#B89458">57</tspan></text>
  <text x="256" y="470" text-anchor="middle" font-family="Avenir Next, Montserrat, Arial, sans-serif" font-size="12" letter-spacing="8" fill="#173240">CLASS SCHEDULE PLANNER</text>
</svg>
